<svg id="visual" viewBox="0 0 900 450" width="900" height="450" xmlns="http://www.w3.org/2000/svg" xmlns:xlink="http://www.w3.org/1999/xlink" version="1.1"><rect x="0" y="0" width="900" height="450" fill="#dbbee9"></rect><path d="M0 176L16.7 164C33.3 152 66.7 128 100 116.7C133.3 105.3 166.7 106.7 200 111.3C233.3 116 266.7 124 300 135.2C333.3 146.3 366.7 160.7 400 165.7C433.3 170.7 466.7 166.3 500 163.3C533.3 160.3 566.7 158.7 600 156.7C633.3 154.7 666.7 152.3 700 144.5C733.3 136.7 766.7 123.3 800 122.7C833.3 122 866.7 134 883.3 140L900 146L900 0L883.3 0C866.7 0 833.3 0 800 0C766.7 0 733.3 0 700 0C666.7 0 633.3 0 600 0C566.7 0 533.3 0 500 0C466.7 0 433.3 0 400 0C366.7 0 333.3 0 300 0C266.7 0 233.3 0 200 0C166.7 0 133.3 0 100 0C66.7 0 33.3 0 16.7 0L0 0Z" fill="#c9a2d8" stroke-linecap="round" stroke-linejoin="miter"></path></svg>